<svg width="3300" height="2200" viewBox="0 0 3300 2200" fill="none" xmlns="http://www.w3.org/2000/svg">
<g id="rectangle.portrait 1" clip-path="url(#clip0_1_2)">
<g id="Notes">
<path id="artboard" d="M3279 10H-21V2210H3279V10Z" fill="white"/>
<path id="Vector" d="M242 302H3015" stroke="black" stroke-width="0.5"/>
<text id="Weight/Scale Variations" fill="black" xml:space="preserve" style="white-space: pre" font-family="Inter" font-size="13" font-weight="bold" letter-spacing="0em"><tspan x="242" y="331.727">Weight/Scale Variations</tspan></text>
<text id="Ultralight" fill="black" xml:space="preserve" style="white-space: pre" font-family="Inter" font-size="13" letter-spacing="0em"><tspan x="510.661" y="331.727">Ultralight</tspan></text>
<text id="Thin" fill="black" xml:space="preserve" style="white-space: pre" font-family="Inter" font-size="13" letter-spacing="0em"><tspan x="822.067" y="331.727">Thin</tspan></text>
<text id="Light" fill="black" xml:space="preserve" style="white-space: pre" font-family="Inter" font-size="13" letter-spacing="0em"><tspan x="1116.77" y="331.727">Light</tspan></text>
<text id="Regular" fill="black" xml:space="preserve" style="white-space: pre" font-family="Inter" font-size="13" letter-spacing="0em"><tspan x="1405.58" y="331.727">Regular</tspan></text>
<text id="Medium" fill="black" xml:space="preserve" style="white-space: pre" font-family="Inter" font-size="13" letter-spacing="0em"><tspan x="1700.99" y="331.727">Medium</tspan></text>
<text id="Semibold" fill="black" xml:space="preserve" style="white-space: pre" font-family="Inter" font-size="13" letter-spacing="0em"><tspan x="1993.65" y="331.727">Semibold</tspan></text>
<text id="Bold" fill="black" xml:space="preserve" style="white-space: pre" font-family="Inter" font-size="13" letter-spacing="0em"><tspan x="2305.29" y="331.727">Bold</tspan></text>
<text id="Heavy" fill="black" xml:space="preserve" style="white-space: pre" font-family="Inter" font-size="13" letter-spacing="0em"><tspan x="2596.32" y="331.727">Heavy</tspan></text>
<text id="Black" fill="black" xml:space="preserve" style="white-space: pre" font-family="Inter" font-size="13" letter-spacing="0em"><tspan x="2895.8" y="331.727">Black</tspan></text>
<path id="Vector_2" d="M242 1913H3015" stroke="black" stroke-width="0.5"/>
<g id="Group">
<path id="Vector_3" d="M251.248 1943.83C255.604 1943.83 259.139 1940.3 259.139 1935.95C259.139 1931.59 255.604 1928.07 251.248 1928.07C246.902 1928.07 243.367 1931.59 243.367 1935.95C243.367 1940.3 246.902 1943.83 251.248 1943.83ZM251.248 1942.35C247.713 1942.35 244.861 1939.48 244.861 1935.95C244.861 1932.41 247.713 1929.55 251.248 1929.55C254.783 1929.55 257.645 1932.41 257.645 1935.95C257.645 1939.48 254.783 1942.35 251.248 1942.35ZM247.654 1935.95C247.654 1936.38 247.957 1936.67 248.406 1936.67H250.506V1938.79C250.506 1939.23 250.799 1939.53 251.228 1939.53C251.678 1939.53 251.971 1939.23 251.971 1938.79V1936.67H254.09C254.529 1936.67 254.832 1936.38 254.832 1935.95C254.832 1935.51 254.529 1935.21 254.09 1935.21H251.971V1933.1C251.971 1932.65 251.678 1932.35 251.228 1932.35C250.799 1932.35 250.506 1932.65 250.506 1933.1V1935.21H248.406C247.957 1935.21 247.654 1935.51 247.654 1935.95Z" fill="black"/>
</g>
<g id="Group_2">
<path id="Vector_4" d="M272.215 1945.91C277.713 1945.91 282.176 1941.45 282.176 1935.95C282.176 1930.45 277.713 1925.99 272.215 1925.99C266.717 1925.99 262.254 1930.45 262.254 1935.95C262.254 1941.45 266.717 1945.91 272.215 1945.91ZM272.215 1944.25C267.625 1944.25 263.914 1940.54 263.914 1935.95C263.914 1931.36 267.625 1927.65 272.215 1927.65C276.805 1927.65 280.516 1931.36 280.516 1935.95C280.516 1940.54 276.805 1944.25 272.215 1944.25ZM267.684 1935.95C267.684 1936.43 268.016 1936.75 268.514 1936.75H271.385V1939.63C271.385 1940.12 271.717 1940.46 272.195 1940.46C272.684 1940.46 273.026 1940.13 273.026 1939.63V1936.75H275.906C276.395 1936.75 276.736 1936.43 276.736 1935.95C276.736 1935.46 276.395 1935.12 275.906 1935.12H273.026V1932.25C273.026 1931.75 272.684 1931.41 272.195 1931.41C271.717 1931.41 271.385 1931.75 271.385 1932.25V1935.12H268.514C268.016 1935.12 267.684 1935.46 267.684 1935.95Z" fill="black"/>
</g>
<g id="Group_3">
<path id="Vector_5" d="M298.895 1948.66C305.916 1948.66 311.619 1942.97 311.619 1935.95C311.619 1928.93 305.916 1923.22 298.895 1923.22C291.873 1923.22 286.18 1928.93 286.18 1935.95C286.18 1942.97 291.873 1948.66 298.895 1948.66ZM298.895 1946.85C292.869 1946.85 287.996 1941.97 287.996 1935.95C287.996 1929.92 292.869 1925.05 298.895 1925.05C304.92 1925.05 309.793 1929.92 309.793 1935.95C309.793 1941.97 304.92 1946.85 298.895 1946.85ZM293.123 1935.95C293.123 1936.47 293.494 1936.83 294.041 1936.83H297.987V1940.78C297.987 1941.32 298.358 1941.7 298.875 1941.7C299.412 1941.7 299.783 1941.33 299.783 1940.78V1936.83H303.739C304.276 1936.83 304.657 1936.47 304.657 1935.95C304.657 1935.4 304.285 1935.03 303.739 1935.03H299.783V1931.09C299.783 1930.54 299.412 1930.16 298.875 1930.16C298.358 1930.16 297.987 1930.54 297.987 1931.09V1935.03H294.041C293.494 1935.03 293.123 1935.4 293.123 1935.95Z" fill="black"/>
</g>
<text id="Design Variations" fill="black" xml:space="preserve" style="white-space: pre" font-family="Inter" font-size="13" font-weight="bold" letter-spacing="0em"><tspan x="242" y="1962.73">Design Variations</tspan></text>
<text id="Symbols are supported in up to nine weights and three scales." fill="black" xml:space="preserve" style="white-space: pre" font-family="Inter" font-size="13" letter-spacing="0em"><tspan x="242" y="1980.73">Symbols are supported in up to nine weights and three scales.</tspan></text>
<text id="For optimal layout with text and other symbols, vertically align" fill="black" xml:space="preserve" style="white-space: pre" font-family="Inter" font-size="13" letter-spacing="0em"><tspan x="242" y="1998.73">For optimal layout with text and other symbols, vertically align</tspan></text>
<text id="symbols with the adjacent text." fill="black" xml:space="preserve" style="white-space: pre" font-family="Inter" font-size="13" letter-spacing="0em"><tspan x="242" y="2016.73">symbols with the adjacent text.</tspan></text>
<path id="Vector_6" d="M755 1929V1943" stroke="#00AEEF" stroke-width="0.5"/>
<g id="Group_4">
<path id="Vector_7" d="M758.311 1943.16C758.828 1943.16 759.082 1942.96 759.268 1942.41L760.527 1938.97H766.289L767.549 1942.41C767.734 1942.96 767.988 1943.16 768.496 1943.16C769.014 1943.16 769.346 1942.84 769.346 1942.36C769.346 1942.19 769.316 1942.03 769.238 1941.83L764.658 1929.63C764.434 1929.04 764.033 1928.73 763.408 1928.73C762.803 1928.73 762.393 1929.03 762.178 1929.62L757.598 1941.84C757.52 1942.04 757.49 1942.2 757.49 1942.37C757.49 1942.85 757.803 1943.16 758.311 1943.16ZM761.006 1937.48L763.379 1930.91H763.428L765.801 1937.48H761.006Z" fill="black"/>
</g>
<path id="Vector_8" d="M771.836 1929V1943" stroke="#00AEEF" stroke-width="0.5"/>
<text id="Margins" fill="black" xml:space="preserve" style="white-space: pre" font-family="Inter" font-size="13" font-weight="bold" letter-spacing="0em"><tspan x="755" y="1962.73">Margins</tspan></text>
<text id="Leading and trailing margins on the left and right side of each symbol" fill="black" xml:space="preserve" style="white-space: pre" font-family="Inter" font-size="13" letter-spacing="0em"><tspan x="755" y="1980.73">Leading and trailing margins on the left and right side of each symbol</tspan></text>
<text id="can be adjusted by modifying the x-location of the margin guidelines." fill="black" xml:space="preserve" style="white-space: pre" font-family="Inter" font-size="13" letter-spacing="0em"><tspan x="755" y="1998.73">can be adjusted by modifying the x-location of the margin guidelines.</tspan></text>
<text id="Modifications are automatically applied proportionally to all" fill="black" xml:space="preserve" style="white-space: pre" font-family="Inter" font-size="13" letter-spacing="0em"><tspan x="755" y="2016.73">Modifications are automatically applied proportionally to all</tspan></text>
<text id="scales and weights." fill="black" xml:space="preserve" style="white-space: pre" font-family="Inter" font-size="13" letter-spacing="0em"><tspan x="755" y="2034.73">scales and weights.</tspan></text>
<g id="Group_5">
<path id="Vector_9" d="M1270.84 1944.87L1272.54 1946.57C1273.4 1947.44 1274.39 1947.38 1275.31 1946.36L1286.01 1934.57L1285.04 1933.6L1274.43 1945.28C1274.07 1945.68 1273.74 1945.77 1273.27 1945.3L1272.1 1944.14C1271.63 1943.68 1271.74 1943.34 1272.14 1942.98L1283.62 1932.18L1282.64 1931.21L1271.05 1942.1C1270.06 1943.02 1269.98 1944 1270.84 1944.87ZM1277.26 1926.67C1276.84 1927.08 1276.81 1927.66 1277.04 1928.05C1277.28 1928.41 1277.74 1928.64 1278.38 1928.48C1279.85 1928.14 1281.37 1928.08 1282.79 1929.02L1282.21 1930.47C1281.87 1931.3 1282.04 1931.89 1282.58 1932.43L1284.88 1934.75C1285.36 1935.24 1285.77 1935.26 1286.34 1935.16L1287.4 1934.96L1288.07 1935.64L1288.03 1936.19C1287.99 1936.69 1288.12 1937.07 1288.61 1937.55L1289.37 1938.29C1289.85 1938.77 1290.46 1938.8 1290.93 1938.33L1293.84 1935.41C1294.31 1934.94 1294.29 1934.35 1293.81 1933.87L1293.04 1933.11C1292.56 1932.63 1292.19 1932.47 1291.71 1932.51L1291.13 1932.56L1290.49 1931.93L1290.73 1930.8C1290.86 1930.24 1290.71 1929.8 1290.12 1929.21L1287.92 1927.02C1284.58 1923.7 1280.15 1923.78 1277.26 1926.67ZM1278.75 1927.04C1281.18 1925.27 1284.47 1925.57 1286.7 1927.8L1289.13 1930.21C1289.37 1930.44 1289.41 1930.63 1289.34 1930.97L1289.02 1932.45L1290.52 1933.94L1291.51 1933.88C1291.76 1933.87 1291.84 1933.89 1292.03 1934.08L1292.61 1934.66L1290.17 1937.1L1289.59 1936.53C1289.4 1936.33 1289.37 1936.25 1289.38 1935.99L1289.45 1935.01L1287.95 1933.53L1286.43 1933.78C1286.11 1933.85 1285.96 1933.82 1285.71 1933.59L1283.71 1931.58C1283.46 1931.35 1283.43 1931.18 1283.59 1930.81L1284.46 1928.72C1282.9 1927.27 1280.87 1926.64 1278.84 1927.24C1278.68 1927.28 1278.63 1927.15 1278.75 1927.04Z" fill="black"/>
</g>
<text id="Exporting" fill="black" xml:space="preserve" style="white-space: pre" font-family="Inter" font-size="13" font-weight="bold" letter-spacing="0em"><tspan x="1268" y="1962.73">Exporting</tspan></text>
<text id="Symbols should be outlined when exporting to ensure the" fill="black" xml:space="preserve" style="white-space: pre" font-family="Inter" font-size="13" letter-spacing="0em"><tspan x="1268" y="1980.73">Symbols should be outlined when exporting to ensure the</tspan></text>
<text id="design is preserved when submitting to Xcode." fill="black" xml:space="preserve" style="white-space: pre" font-family="Inter" font-size="13" letter-spacing="0em"><tspan x="1268" y="1998.73">design is preserved when submitting to Xcode.</tspan></text>
<text id="template-version" fill="black" xml:space="preserve" style="white-space: pre" font-family="SF Pro" font-size="13" letter-spacing="0em"><tspan x="2926.36" y="1942.62">Template v.6.0</tspan></text>
<text id="Requires Xcode 16 or greater" fill="black" xml:space="preserve" style="white-space: pre" font-family="Inter" font-size="13" letter-spacing="0em"><tspan x="2837.16" y="1960.73">Requires Xcode 16 or greater</tspan></text>
<text id="descriptive-name" fill="black" xml:space="preserve" style="white-space: pre" font-family="Inter" font-size="13" letter-spacing="0em"><tspan x="2807.57" y="1978.73">Generated from rectangle.portrait</tspan></text>
<text id="Typeset at 100.0 points" fill="black" xml:space="preserve" style="white-space: pre" font-family="Inter" font-size="13" letter-spacing="0em"><tspan x="2871.56" y="1996.73">Typeset at 100.0 points</tspan></text>
<text id="Small" fill="black" xml:space="preserve" style="white-space: pre" font-family="Inter" font-size="13" letter-spacing="0em"><tspan x="242" y="735.727">Small</tspan></text>
<text id="Medium_2" fill="black" xml:space="preserve" style="white-space: pre" font-family="Inter" font-size="13" letter-spacing="0em"><tspan x="242" y="1165.73">Medium</tspan></text>
<text id="Large" fill="black" xml:space="preserve" style="white-space: pre" font-family="Inter" font-size="13" letter-spacing="0em"><tspan x="242" y="1595.73">Large</tspan></text>
</g>
<g id="Guides">
<g id="H-reference">
<path id="Vector_10" d="M339.994 696H342.638L368.328 628.868H369.03V625.541H367.123L339.994 696ZM350.688 671.52H385.981L385.231 669.272H351.438L350.688 671.52ZM394.12 696H396.764L369.638 625.541H368.433V628.868L394.12 696Z" fill="#27AAE1"/>
</g>
<path id="Baseline-S" d="M263 696H3036" stroke="#27AAE1" stroke-width="0.5"/>
<path id="Capline-S" d="M263 625.541H3036" stroke="#27AAE1" stroke-width="0.5"/>
<g id="H-reference_2">
<path id="Vector_11" d="M339.994 1126H342.638L368.328 1058.87H369.03V1055.54H367.123L339.994 1126ZM350.688 1101.52H385.981L385.231 1099.27H351.438L350.688 1101.52ZM394.12 1126H396.764L369.638 1055.54H368.433V1058.87L394.12 1126Z" fill="#27AAE1"/>
</g>
<path id="Baseline-M" d="M263 1126H3036" stroke="#27AAE1" stroke-width="0.5"/>
<path id="Capline-M" d="M263 1055.54H3036" stroke="#27AAE1" stroke-width="0.5"/>
<g id="H-reference_3">
<path id="Vector_12" d="M339.994 1556H342.638L368.328 1488.87H369.03V1485.54H367.123L339.994 1556ZM350.688 1531.52H385.981L385.231 1529.27H351.438L350.688 1531.52ZM394.12 1556H396.764L369.638 1485.54H368.433V1488.87L394.12 1556Z" fill="#27AAE1"/>
</g>
<path id="Baseline-L" d="M263 1556H3036" stroke="#27AAE1" stroke-width="0.5"/>
<path id="Capline-L" d="M263 1485.54H3036" stroke="#27AAE1" stroke-width="0.5"/>
<path id="right-margin-Black-S" d="M2979.1 600.785V720.121" stroke="#00AEEF" stroke-width="0.5"/>
<path id="left-margin-Black-S" d="M2887.7 600.785V720.121" stroke="#00AEEF" stroke-width="0.5"/>
<path id="right-margin-Regular-S" d="M1492.13 600.785V720.121" stroke="#00AEEF" stroke-width="0.5"/>
<path id="left-margin-Regular-S" d="M1407.56 600.785V720.121" stroke="#00AEEF" stroke-width="0.5"/>
<path id="right-margin-Ultralight-S" d="M600.134 600.785V720.121" stroke="#00AEEF" stroke-width="0.5"/>
<path id="left-margin-Ultralight-S" d="M519.288 600.785V720.121" stroke="#00AEEF" stroke-width="0.5"/>
</g>
<g id="Symbols">
<g id="Black-S">
<path id="Vector_13" d="M2897.47 688.92C2897.47 698.49 2903.13 704.154 2912.7 704.154H2954.11C2963.68 704.154 2969.34 698.49 2969.34 688.92V632.67C2969.34 623.1 2963.68 617.436 2954.11 617.436H2912.7C2903.13 617.436 2897.47 623.1 2897.47 632.67V688.92ZM2911.63 686.674V634.916C2911.63 632.67 2912.5 631.596 2914.95 631.596H2951.86C2954.3 631.596 2955.18 632.67 2955.18 634.916V686.674C2955.18 688.92 2954.3 689.994 2951.86 689.994H2914.95C2912.5 689.994 2911.63 688.92 2911.63 686.674Z" stroke="black" stroke-width="0.5"/>
<g id="Group 7">
<path id="Rectangle 3" d="M2914 636.963C2914 635.327 2915.71 634 2917.82 634H2949.18C2951.29 634 2953 635.327 2953 636.963V647.037C2953 648.673 2951.29 650 2949.18 650H2917.82C2915.71 650 2914 648.673 2914 647.037V636.963Z" fill="black"/>
<path id="Ellipse 33" d="M2922 655C2922 657.209 2920.21 659 2918 659C2915.79 659 2914 657.209 2914 655C2914 652.791 2915.79 651 2918 651C2920.21 651 2922 652.791 2922 655Z" fill="black"/>
<path id="Ellipse 34" d="M2922 665C2922 667.209 2920.21 669 2918 669C2915.79 669 2914 667.209 2914 665C2914 662.791 2915.79 661 2918 661C2920.21 661 2922 662.791 2922 665Z" fill="black"/>
<path id="Ellipse 35" d="M2932 665C2932 667.209 2930.21 669 2928 669C2925.79 669 2924 667.209 2924 665C2924 662.791 2925.79 661 2928 661C2930.21 661 2932 662.791 2932 665Z" fill="black"/>
<path id="Ellipse 36" d="M2943 665C2943 667.209 2941.21 669 2939 669C2936.79 669 2935 667.209 2935 665C2935 662.791 2936.79 661 2939 661C2941.21 661 2943 662.791 2943 665Z" fill="black"/>
<path id="Ellipse 37" d="M2953 665C2953 667.209 2951.21 669 2949 669C2946.79 669 2945 667.209 2945 665C2945 662.791 2946.79 661 2949 661C2951.21 661 2953 662.791 2953 665Z" fill="black"/>
<path id="Ellipse 38" d="M2932 675C2932 677.209 2930.21 679 2928 679C2925.79 679 2924 677.209 2924 675C2924 672.791 2925.79 671 2928 671C2930.21 671 2932 672.791 2932 675Z" fill="black"/>
<path id="Ellipse 39" d="M2943 675C2943 677.209 2941.21 679 2939 679C2936.79 679 2935 677.209 2935 675C2935 672.791 2936.79 671 2939 671C2941.21 671 2943 672.791 2943 675Z" fill="black"/>
<path id="Ellipse 40" d="M2953 675C2953 677.209 2951.21 679 2949 679C2946.79 679 2945 677.209 2945 675C2945 672.791 2946.79 671 2949 671C2951.21 671 2953 672.791 2953 675Z" fill="black"/>
<path id="Ellipse 41" d="M2943 685C2943 687.209 2941.21 689 2939 689C2936.79 689 2935 687.209 2935 685C2935 682.791 2936.79 681 2939 681C2941.21 681 2943 682.791 2943 685Z" fill="black"/>
<path id="Ellipse 42" d="M2943 655C2943 657.209 2941.21 659 2939 659C2936.79 659 2935 657.209 2935 655C2935 652.791 2936.79 651 2939 651C2941.21 651 2943 652.791 2943 655Z" fill="black"/>
<path id="Ellipse 43" d="M2953 685C2953 687.209 2951.21 689 2949 689C2946.79 689 2945 687.209 2945 685C2945 682.791 2946.79 681 2949 681C2951.21 681 2953 682.791 2953 685Z" fill="black"/>
<path id="Ellipse 44" d="M2932 685C2932 687.209 2930.21 689 2928 689C2925.79 689 2924 687.209 2924 685C2924 682.791 2925.79 681 2928 681C2930.21 681 2932 682.791 2932 685Z" fill="black"/>
<path id="Ellipse 45" d="M2922 675C2922 677.209 2920.21 679 2918 679C2915.79 679 2914 677.209 2914 675C2914 672.791 2915.79 671 2918 671C2920.21 671 2922 672.791 2922 675Z" fill="black"/>
<path id="Ellipse 46" d="M2922 685C2922 687.209 2920.21 689 2918 689C2915.79 689 2914 687.209 2914 685C2914 682.791 2915.79 681 2918 681C2920.21 681 2922 682.791 2922 685Z" fill="black"/>
<path id="Ellipse 47" d="M2932 655C2932 657.209 2930.21 659 2928 659C2925.79 659 2924 657.209 2924 655C2924 652.791 2925.79 651 2928 651C2930.21 651 2932 652.791 2932 655Z" fill="black"/>
<path id="Ellipse 48" d="M2953 655C2953 657.209 2951.21 659 2949 659C2946.79 659 2945 657.209 2945 655C2945 652.791 2946.79 651 2949 651C2951.21 651 2953 652.791 2953 655Z" fill="black"/>
</g>
</g>
<g id="Regular-S">
<path id="Vector_14" d="M1417.33 689.457C1417.33 697.807 1421.38 701.908 1429.58 701.908H1470.06C1478.26 701.908 1482.36 697.807 1482.36 689.457V632.035C1482.36 623.734 1478.26 619.584 1470.06 619.584H1429.58C1421.38 619.584 1417.33 623.734 1417.33 632.035V689.457ZM1424.36 689.359V632.133C1424.36 628.617 1426.26 626.615 1429.97 626.615H1469.72C1473.38 626.615 1475.28 628.617 1475.28 632.133V689.359C1475.28 692.875 1473.38 694.877 1469.72 694.877H1429.97C1426.26 694.877 1424.36 692.875 1424.36 689.359Z" stroke="black" stroke-width="0.5"/>
<g id="Group 6">
<path id="Rectangle 2" d="M1428 632.333C1428 630.492 1429.93 629 1432.31 629H1467.69C1470.07 629 1472 630.492 1472 632.333V643.667C1472 645.508 1470.07 647 1467.69 647H1432.31C1429.93 647 1428 645.508 1428 643.667V632.333Z" fill="black"/>
<path id="Ellipse 17" d="M1437 652.5C1437 654.985 1434.99 657 1432.5 657C1430.01 657 1428 654.985 1428 652.5C1428 650.015 1430.01 648 1432.5 648C1434.99 648 1437 650.015 1437 652.5Z" fill="black"/>
<path id="Ellipse 18" d="M1437 663.5C1437 665.985 1434.99 668 1432.5 668C1430.01 668 1428 665.985 1428 663.5C1428 661.015 1430.01 659 1432.5 659C1434.99 659 1437 661.015 1437 663.5Z" fill="black"/>
<path id="Ellipse 19" d="M1449 663.5C1449 665.985 1446.99 668 1444.5 668C1442.01 668 1440 665.985 1440 663.5C1440 661.015 1442.01 659 1444.5 659C1446.99 659 1449 661.015 1449 663.5Z" fill="black"/>
<path id="Ellipse 20" d="M1461 663.5C1461 665.985 1458.99 668 1456.5 668C1454.01 668 1452 665.985 1452 663.5C1452 661.015 1454.01 659 1456.5 659C1458.99 659 1461 661.015 1461 663.5Z" fill="black"/>
<path id="Ellipse 21" d="M1472 663.5C1472 665.985 1469.99 668 1467.5 668C1465.01 668 1463 665.985 1463 663.5C1463 661.015 1465.01 659 1467.5 659C1469.99 659 1472 661.015 1472 663.5Z" fill="black"/>
<path id="Ellipse 22" d="M1449 674.5C1449 676.985 1446.99 679 1444.5 679C1442.01 679 1440 676.985 1440 674.5C1440 672.015 1442.01 670 1444.5 670C1446.99 670 1449 672.015 1449 674.5Z" fill="black"/>
<path id="Ellipse 23" d="M1461 674.5C1461 676.985 1458.99 679 1456.5 679C1454.01 679 1452 676.985 1452 674.5C1452 672.015 1454.01 670 1456.5 670C1458.99 670 1461 672.015 1461 674.5Z" fill="black"/>
<path id="Ellipse 24" d="M1472 674.5C1472 676.985 1469.99 679 1467.5 679C1465.01 679 1463 676.985 1463 674.5C1463 672.015 1465.01 670 1467.5 670C1469.99 670 1472 672.015 1472 674.5Z" fill="black"/>
<path id="Ellipse 25" d="M1461 685.5C1461 687.985 1458.99 690 1456.5 690C1454.01 690 1452 687.985 1452 685.5C1452 683.015 1454.01 681 1456.5 681C1458.99 681 1461 683.015 1461 685.5Z" fill="black"/>
<path id="Ellipse 26" d="M1461 652.5C1461 654.985 1458.99 657 1456.5 657C1454.01 657 1452 654.985 1452 652.5C1452 650.015 1454.01 648 1456.5 648C1458.99 648 1461 650.015 1461 652.5Z" fill="black"/>
<path id="Ellipse 27" d="M1472 685.5C1472 687.985 1469.99 690 1467.5 690C1465.01 690 1463 687.985 1463 685.5C1463 683.015 1465.01 681 1467.5 681C1469.99 681 1472 683.015 1472 685.5Z" fill="black"/>
<path id="Ellipse 28" d="M1449 685.5C1449 687.985 1446.99 690 1444.5 690C1442.01 690 1440 687.985 1440 685.5C1440 683.015 1442.01 681 1444.5 681C1446.99 681 1449 683.015 1449 685.5Z" fill="black"/>
<path id="Ellipse 29" d="M1437 674.5C1437 676.985 1434.99 679 1432.5 679C1430.01 679 1428 676.985 1428 674.5C1428 672.015 1430.01 670 1432.5 670C1434.99 670 1437 672.015 1437 674.5Z" fill="black"/>
<path id="Ellipse 30" d="M1437 685.5C1437 687.985 1434.99 690 1432.5 690C1430.01 690 1428 687.985 1428 685.5C1428 683.015 1430.01 681 1432.5 681C1434.99 681 1437 683.015 1437 685.5Z" fill="black"/>
<path id="Ellipse 31" d="M1449 652.5C1449 654.985 1446.99 657 1444.5 657C1442.01 657 1440 654.985 1440 652.5C1440 650.015 1442.01 648 1444.5 648C1446.99 648 1449 650.015 1449 652.5Z" fill="black"/>
<path id="Ellipse 32" d="M1472 652.5C1472 654.985 1469.99 657 1467.5 657C1465.01 657 1463 654.985 1463 652.5C1463 650.015 1465.01 648 1467.5 648C1469.99 648 1472 650.015 1472 652.5Z" fill="black"/>
</g>
</g>
<g id="Ultralight-S">
<path id="Vector_15" d="M529.054 691.183C529.054 697.716 532.516 701.182 539.039 701.182H580.38C586.949 701.182 590.369 697.716 590.369 691.183V630.491C590.369 623.961 586.949 620.492 580.38 620.492H539.039C532.516 620.492 529.054 623.961 529.054 630.491V691.183ZM531.271 691.085V630.589C531.271 625.393 533.948 622.71 539.157 622.71H580.266C585.472 622.71 588.193 625.393 588.193 630.589V691.085C588.193 696.281 585.472 698.964 580.266 698.964H539.157C533.948 698.964 531.271 696.281 531.271 691.085Z" stroke="black" stroke-width="0.5"/>
<g id="Group 1">
<path id="Rectangle 1" d="M534 628.704C534 626.658 536.239 625 539 625H580C582.761 625 585 626.658 585 628.704V641.296C585 643.342 582.761 645 580 645H539C536.239 645 534 643.342 534 641.296V628.704Z" fill="black"/>
<path id="Ellipse 1" d="M544 652C544 654.761 541.761 657 539 657C536.239 657 534 654.761 534 652C534 649.239 536.239 647 539 647C541.761 647 544 649.239 544 652Z" fill="black"/>
<path id="Ellipse 2" d="M544 664C544 666.761 541.761 669 539 669C536.239 669 534 666.761 534 664C534 661.239 536.239 659 539 659C541.761 659 544 661.239 544 664Z" fill="black"/>
<path id="Ellipse 8" d="M558 664C558 666.761 555.761 669 553 669C550.239 669 548 666.761 548 664C548 661.239 550.239 659 553 659C555.761 659 558 661.239 558 664Z" fill="black"/>
<path id="Ellipse 9" d="M572 664C572 666.761 569.761 669 567 669C564.239 669 562 666.761 562 664C562 661.239 564.239 659 567 659C569.761 659 572 661.239 572 664Z" fill="black"/>
<path id="Ellipse 10" d="M585 664C585 666.761 582.761 669 580 669C577.239 669 575 666.761 575 664C575 661.239 577.239 659 580 659C582.761 659 585 661.239 585 664Z" fill="black"/>
<path id="Ellipse 11" d="M558 676C558 678.761 555.761 681 553 681C550.239 681 548 678.761 548 676C548 673.239 550.239 671 553 671C555.761 671 558 673.239 558 676Z" fill="black"/>
<path id="Ellipse 12" d="M572 675C572 677.761 569.761 680 567 680C564.239 680 562 677.761 562 675C562 672.239 564.239 670 567 670C569.761 670 572 672.239 572 675Z" fill="black"/>
<path id="Ellipse 13" d="M585 675C585 677.761 582.761 680 580 680C577.239 680 575 677.761 575 675C575 672.239 577.239 670 580 670C582.761 670 585 672.239 585 675Z" fill="black"/>
<path id="Ellipse 15" d="M572 688C572 690.761 569.761 693 567 693C564.239 693 562 690.761 562 688C562 685.239 564.239 683 567 683C569.761 683 572 685.239 572 688Z" fill="black"/>
<path id="Ellipse 6" d="M572 652C572 654.761 569.761 657 567 657C564.239 657 562 654.761 562 652C562 649.239 564.239 647 567 647C569.761 647 572 649.239 572 652Z" fill="black"/>
<path id="Ellipse 16" d="M585 688C585 690.761 582.761 693 580 693C577.239 693 575 690.761 575 688C575 685.239 577.239 683 580 683C582.761 683 585 685.239 585 688Z" fill="black"/>
<path id="Ellipse 14" d="M558 688C558 690.761 555.761 693 553 693C550.239 693 548 690.761 548 688C548 685.239 550.239 683 553 683C555.761 683 558 685.239 558 688Z" fill="black"/>
</g>
<g id="Group 2">
<path id="Ellipse 3" d="M544 676C544 678.761 541.761 681 539 681C536.239 681 534 678.761 534 676C534 673.239 536.239 671 539 671C541.761 671 544 673.239 544 676Z" fill="black"/>
</g>
<g id="Group 3">
<path id="Ellipse 4" d="M544 688C544 690.761 541.761 693 539 693C536.239 693 534 690.761 534 688C534 685.239 536.239 683 539 683C541.761 683 544 685.239 544 688Z" fill="black"/>
</g>
<g id="Group 4">
<path id="Ellipse 5" d="M558 652C558 654.761 555.761 657 553 657C550.239 657 548 654.761 548 652C548 649.239 550.239 647 553 647C555.761 647 558 649.239 558 652Z" fill="black"/>
</g>
<g id="Group 5">
<path id="Ellipse 7" d="M585 652C585 654.761 582.761 657 580 657C577.239 657 575 654.761 575 652C575 649.239 577.239 647 580 647C582.761 647 585 649.239 585 652Z" fill="black"/>
</g>
</g>
</g>
</g>
<defs>
<clipPath id="clip0_1_2">
<rect width="3300" height="2200" fill="white"/>
</clipPath>
</defs>
</svg>
